<svg width="60" height="60" viewBox="0 0 60 60" fill="none" xmlns="http://www.w3.org/2000/svg">
<path d="M18.1261 24.0632C16.8629 25.3264 16.8629 27.2843 18.1261 28.5474C19.3892 29.8106 21.3471 29.8106 22.6103 28.5474L26.8419 24.3159V43.3896C26.8419 45.158 28.2313 46.5474 29.9998 46.5474C31.7682 46.5474 33.1577 45.158 33.1577 43.3896V24.3159L37.4524 28.6106C38.7156 29.8738 40.6734 29.8738 41.9366 28.6106C42.5682 27.979 42.884 27.158 42.884 26.4001C42.884 25.579 42.5682 24.758 41.9366 24.1896L32.2103 14.4632C31.6419 13.8948 30.8208 13.5159 29.9998 13.5159C29.1787 13.5159 28.3577 13.8317 27.7892 14.4632L18.1261 24.0632Z" fill="#EAD620"/>
<path d="M0 30C0 46.5474 13.4526 60 30 60C46.5474 60 60 46.5474 60 30C60 13.4526 46.5474 0 30 0C13.4526 0 0 13.4526 0 30ZM53.6842 30C53.6842 43.0737 43.0737 53.6842 30 53.6842C16.9263 53.6842 6.31579 43.0737 6.31579 30C6.31579 16.9263 16.9263 6.31579 30 6.31579C43.0737 6.31579 53.6842 16.9263 53.6842 30Z" fill="#EAD620"/>
</svg>
