<svg width="50" height="40" viewBox="0 0 50 40" fill="none" xmlns="http://www.w3.org/2000/svg">
<path d="M22.715 22.2201C22.5533 22.2201 22.3895 22.1814 22.2352 22.1009C21.7113 21.8249 21.5017 21.161 21.7671 20.6174L26.265 11.407C26.5304 10.8634 27.1692 10.6459 27.6948 10.9213C28.2187 11.1973 28.4283 11.8612 28.1629 12.4048L23.665 21.6152C23.4778 21.9988 23.1038 22.2201 22.715 22.2201Z" fill="#333333"/>
<path d="M30.1701 21.8718C29.8978 21.8718 29.626 21.7642 29.418 21.5484C29.0026 21.1174 29.0026 20.4187 29.418 19.9872L31.5116 17.8155L29.418 15.6438C29.0026 15.2128 29.0026 14.5141 29.418 14.0825C29.8334 13.6515 30.5068 13.6515 30.9223 14.0825L33.7685 17.0351C33.968 17.2421 34.0802 17.523 34.0802 17.816C34.0802 18.1091 33.968 18.3894 33.7685 18.597L30.9223 21.5495C30.7143 21.7642 30.442 21.8718 30.1701 21.8718Z" fill="#333333"/>
<path d="M19.8295 18.5665C19.5572 18.5665 19.2854 18.4589 19.0774 18.2431L16.2311 15.2905C16.0317 15.0836 15.9194 14.8027 15.9194 14.5102C15.9194 14.2171 16.0317 13.9368 16.2311 13.7293L19.0774 10.7767C19.4928 10.3462 20.1662 10.3457 20.5817 10.7767C20.9971 11.2077 20.9971 11.9064 20.5817 12.338L18.488 14.5096L20.5817 16.6818C20.9971 17.1129 20.9971 17.8115 20.5817 18.2426C20.3742 18.4589 20.1019 18.5665 19.8295 18.5665Z" fill="#333333"/>
<path d="M48.9362 30.4662H48.0601V3.51881C48.0601 1.57839 46.5388 0 44.6686 0H5.33138C3.46117 0 1.93989 1.57839 1.93989 3.51881V30.4662H1.06383C0.476064 30.4662 0 30.9607 0 31.57C0 36.2179 3.64468 40 8.12447 40H41.875C46.3548 39.9994 50 36.2179 50 31.57C50 30.9601 49.5234 30.4662 48.9362 30.4662ZM4.06808 3.51881C4.06808 2.79584 4.63457 2.20754 5.33191 2.20754H44.6686C45.366 2.20754 45.9324 2.79584 45.9324 3.51881V30.4662H32.3995C32.0436 30.4662 31.7117 30.6511 31.5144 30.9579L30.3952 32.7002H19.6048L18.4856 30.9579C18.2883 30.6511 17.9564 30.4662 17.6005 30.4662H4.06808V3.51881ZM41.8755 37.7919H8.12447C5.18085 37.7919 2.72553 35.58 2.22181 32.6732H17.0309L18.15 34.4155C18.3473 34.7229 18.6793 34.9072 19.0351 34.9072H30.9638C31.3197 34.9072 31.6516 34.7229 31.8489 34.4155L32.9681 32.6732H47.7771C47.2745 35.58 44.8191 37.7919 41.8755 37.7919Z" fill="#333333"/>
<path d="M43.2124 29.2323H6.78795C6.20072 29.2323 5.72412 28.7384 5.72412 28.1285V4.54542C5.72412 3.93614 6.20072 3.44165 6.78795 3.44165H43.2129C43.8002 3.44165 44.2768 3.93614 44.2768 4.54542V28.1285C44.2762 28.7384 43.8002 29.2323 43.2124 29.2323ZM7.85178 27.0248H42.1491V5.64919H7.85178V27.0248Z" fill="#333333"/>
</svg>
