<svg width="50" height="40" viewBox="0 0 50 40" fill="none" xmlns="http://www.w3.org/2000/svg">
<path fill-rule="evenodd" clip-rule="evenodd" d="M16.732 3.33333V0C10.9913 0 6.33592 3.73167 6.33592 8.33333V12.7767L0.418474 19.0767C-0.144993 19.675 -0.138748 20.5017 0.433036 21.0967L6.33592 27.235V31.6667C6.33592 36.2683 10.9913 40 16.732 40V36.6667C13.2867 36.6667 10.4944 34.4283 10.4944 31.6667V26.6667C10.4944 26.2983 10.3426 25.94 10.0619 25.6483L4.69334 20.0667L10.0764 14.335C10.3467 14.0467 10.4944 13.695 10.4944 13.3333V8.33333C10.4944 5.57167 13.2867 3.33333 16.732 3.33333ZM33.3657 0V3.33333C36.7652 3.37667 39.5056 5.59833 39.5056 8.33333V13.3333C39.5056 13.695 39.6512 14.0467 39.9236 14.335L45.3066 20.0667L39.9381 25.6483C39.6574 25.94 39.5056 26.2983 39.5056 26.6667V31.6667C39.5056 34.4017 36.7652 36.6233 33.3657 36.6667V40C39.0628 39.9567 43.6641 36.2433 43.6641 31.6667V27.235L49.567 21.0967C50.1387 20.5017 50.145 19.675 49.5815 19.0767L43.6641 12.7767V8.33333C43.6641 3.75667 39.0628 0.0433333 33.3657 0Z" fill="#333333"/>
</svg>
