<svg width="33" height="40" viewBox="0 0 33 40" fill="none" xmlns="http://www.w3.org/2000/svg">
<path d="M0.487413 31.2374C0.471042 31.3206 0.471042 31.4062 0.487413 31.4894C0.490922 31.5174 0.496296 31.5452 0.503501 31.5725C0.532032 31.6777 0.586417 31.774 0.6617 31.8527C0.724066 31.9149 0.798083 31.9643 0.879518 31.9978C0.960952 32.0314 1.04821 32.0486 1.1363 32.0485C1.20016 32.0465 1.26339 32.0352 1.32399 32.015L20.5237 26.2099C20.987 26.0704 21.4146 25.832 21.7769 25.5112C22.1391 25.1904 22.4274 24.7948 22.6218 24.3517L26.9441 14.5286L27.1989 14.7834C27.576 15.1604 28.0874 15.3721 28.6207 15.3721C29.1539 15.3721 29.6653 15.1604 30.0424 14.7834L31.9395 12.8876C32.1264 12.7009 32.2746 12.4791 32.3757 12.2351C32.4769 11.991 32.5289 11.7294 32.5289 11.4652C32.5289 11.201 32.4769 10.9394 32.3757 10.6953C32.2746 10.4513 32.1264 10.2295 31.9395 10.0428L22.4663 0.569594C22.0833 0.203989 21.5741 0 21.0445 0C20.515 0 20.0058 0.203989 19.6228 0.569594L17.719 2.4653C17.342 2.84242 17.1302 3.35383 17.1302 3.88708C17.1302 4.42032 17.342 4.93174 17.719 5.30885L17.9751 5.56492L8.15201 9.88723C7.70921 10.0821 7.31385 10.3706 6.99309 10.7328C6.67234 11.0949 6.43379 11.5223 6.29384 11.9854L0.488754 31.1851C0.479369 31.2025 0.491435 31.2199 0.487413 31.2374ZM18.6669 3.41315L20.5639 1.51745C20.6896 1.39178 20.8601 1.32118 21.0378 1.32118C21.2156 1.32118 21.3861 1.39178 21.5118 1.51745L30.9916 10.9973C31.0541 11.0596 31.1036 11.1335 31.1374 11.215C31.1712 11.2964 31.1886 11.3837 31.1886 11.4719C31.1886 11.5601 31.1712 11.6474 31.1374 11.7288C31.1036 11.8103 31.0541 11.8842 30.9916 11.9465L29.0946 13.8422C28.9689 13.9679 28.7984 14.0385 28.6207 14.0385C28.4429 14.0385 28.2724 13.9679 28.1467 13.8422L27.1989 12.8944L19.6161 5.31019L18.6669 4.361C18.5412 4.2353 18.4706 4.06482 18.4706 3.88708C18.4706 3.70933 18.5412 3.53886 18.6669 3.41315ZM7.57552 12.3728C7.65955 12.0949 7.80276 11.8385 7.99531 11.6212C8.18786 11.4039 8.42518 11.2308 8.69096 11.1139L18.9926 6.58249L25.9279 13.5137L21.3938 23.8168C21.2769 24.0826 21.1039 24.3199 20.8866 24.5124C20.6692 24.705 20.4128 24.8482 20.1349 24.9322L3.49185 29.9651L12.9798 20.4772C12.9986 20.453 13.0156 20.4274 13.0307 20.4008C13.5919 20.7369 14.2567 20.8563 14.8999 20.7365C15.543 20.6166 16.1202 20.2657 16.5226 19.7499C16.925 19.2341 17.125 18.5889 17.0848 17.9359C17.0447 17.2829 16.7672 16.6671 16.3045 16.2045C15.8419 15.7419 15.2262 15.4644 14.5732 15.4242C13.9202 15.3841 13.275 15.584 12.7592 15.9865C12.2434 16.3889 11.8925 16.966 11.7726 17.6092C11.6527 18.2523 11.7721 18.9171 12.1083 19.4784C12.0817 19.4935 12.0561 19.5105 12.0319 19.5293L2.544 29.0172L7.57552 12.3728ZM13.453 17.159C13.6406 16.9717 13.8795 16.8441 14.1395 16.7925C14.3995 16.7409 14.669 16.7676 14.9139 16.8691C15.1588 16.9706 15.3681 17.1424 15.5153 17.3629C15.6626 17.5833 15.7411 17.8424 15.7411 18.1075C15.7411 18.3726 15.6626 18.6318 15.5153 18.8522C15.3681 19.0727 15.1588 19.2445 14.9139 19.346C14.669 19.4475 14.3995 19.4742 14.1395 19.4226C13.8795 19.3709 13.6406 19.2434 13.453 19.0561C13.3284 18.9315 13.2295 18.7837 13.162 18.6209C13.0945 18.4582 13.0598 18.2837 13.0598 18.1075C13.0598 17.9314 13.0945 17.7569 13.162 17.5941C13.2295 17.4314 13.3284 17.2835 13.453 17.159ZM28.919 31.1355C28.0879 30.481 27.1291 30.0076 26.1042 29.7458C25.0792 29.4839 24.0109 29.4394 22.9677 29.6152C20.914 29.985 19.0179 30.9608 17.5233 32.4172C16.8274 33.0975 16.1711 33.8173 15.5579 34.573C14.6268 35.8331 13.4759 36.915 12.1606 37.7664C11.29 38.2441 10.3306 38.5382 9.3418 38.6304C8.35301 38.7226 7.3558 38.6111 6.41182 38.3027C5.31054 37.958 4.28906 37.3971 3.40716 36.6529C2.52526 35.9086 1.80065 34.996 1.27573 33.9683C1.19697 33.8083 1.05787 33.6861 0.889042 33.6287C0.720211 33.5712 0.535473 33.5832 0.375468 33.662C0.215463 33.7407 0.0932973 33.8798 0.035847 34.0487C-0.0216034 34.2175 -0.00963342 34.4022 0.0691247 34.5622C0.675725 35.7521 1.51355 36.809 2.53358 37.6711C3.55361 38.5332 4.73534 39.1832 6.00962 39.583C6.88443 39.8572 7.79563 39.9978 8.71241 40C10.1469 40.0037 11.5582 39.6385 12.8108 38.9395C14.2692 38.0118 15.5462 36.826 16.5794 35.4404C17.162 34.7238 17.7846 34.0408 18.4443 33.3945C19.7449 32.1223 21.3963 31.2683 23.1863 30.9424C24.0491 30.7971 24.9329 30.8342 25.7805 31.0513C26.6282 31.2683 27.421 31.6605 28.1078 32.2027C29.0106 32.926 29.7594 33.8227 30.3102 34.8399C30.8609 35.8572 31.2025 36.9744 31.3147 38.1257C31.3353 38.3016 31.4238 38.4626 31.5612 38.5742C31.6987 38.6859 31.8743 38.7395 32.0508 38.7237C32.1389 38.7154 32.2246 38.6898 32.3029 38.6483C32.3811 38.6068 32.4503 38.5502 32.5065 38.4817C32.5628 38.4133 32.6049 38.3344 32.6304 38.2496C32.656 38.1648 32.6645 38.0757 32.6554 37.9876C32.5224 36.6539 32.1236 35.3603 31.4826 34.1832C30.8416 33.0062 29.9712 31.9694 28.923 31.1341L28.919 31.1355Z" fill="#333333"/>
</svg>
