<svg width="31" height="40" viewBox="0 0 31 40" fill="none" xmlns="http://www.w3.org/2000/svg">
<path d="M6.47059 18.8235H20.5882C22.5375 18.8235 24.1176 17.2434 24.1176 15.2941V10.4571C21.76 9.92207 20 7.81363 20 5.29412C20 2.37026 22.3703 0 25.2941 0C28.218 0 30.5882 2.37026 30.5882 5.29412C30.5882 7.81363 28.8282 9.92207 26.4706 10.4571V15.2941C26.4706 18.5429 23.837 21.1765 20.5882 21.1765H6.47059V29.543C8.82822 30.0779 10.5882 32.1864 10.5882 34.7059C10.5882 37.6297 8.21798 40 5.29412 40C2.37026 40 0 37.6297 0 34.7059C0 32.1864 1.76001 30.0779 4.11765 29.543V10.4571C1.76001 9.92207 0 7.81363 0 5.29412C0 2.37026 2.37026 0 5.29412 0C8.21798 0 10.5882 2.37026 10.5882 5.29412C10.5882 7.81363 8.82822 9.92207 6.47059 10.4571V18.8235ZM5.29412 8.23529C6.91849 8.23529 8.23529 6.91848 8.23529 5.29412C8.23529 3.66975 6.91849 2.35294 5.29412 2.35294C3.66975 2.35294 2.35294 3.66975 2.35294 5.29412C2.35294 6.91848 3.66975 8.23529 5.29412 8.23529ZM5.29412 37.6471C6.91849 37.6471 8.23529 36.3303 8.23529 34.7059C8.23529 33.0815 6.91849 31.7647 5.29412 31.7647C3.66975 31.7647 2.35294 33.0815 2.35294 34.7059C2.35294 36.3303 3.66975 37.6471 5.29412 37.6471ZM25.2941 8.23529C26.9185 8.23529 28.2353 6.91848 28.2353 5.29412C28.2353 3.66975 26.9185 2.35294 25.2941 2.35294C23.6698 2.35294 22.3529 3.66975 22.3529 5.29412C22.3529 6.91848 23.6698 8.23529 25.2941 8.23529Z" fill="#333333"/>
</svg>
