<svg width="26" height="26" viewBox="0 0 26 26" fill="none" xmlns="http://www.w3.org/2000/svg">
<path fill-rule="evenodd" clip-rule="evenodd" d="M20.1239 26H14.0036C11.0801 26 9.30843 24.4748 8.64132 23.9006C8.64132 23.9006 8.64082 23.8996 8.63983 23.8991C8.56328 23.833 8.46684 23.7974 8.36642 23.7974H7.11919C6.79856 23.7974 6.53857 23.5273 6.53857 23.1943V10.6229C6.53857 10.2893 6.79856 10.0198 7.11919 10.0198H8.19989C8.57769 9.99711 10.6024 8.94691 11.8118 6.80831C12.1981 6.12573 12.392 5.30942 12.5262 3.79815C12.551 3.23536 12.5247 2.7433 12.5013 2.30856C12.4566 1.47109 12.4213 0.809677 12.8488 0.356347C12.8533 0.3517 12.8578 0.347053 12.8617 0.342922C12.9761 0.229331 13.244 -0.0365746 14.5951 0.00421483C15.1613 0.0212535 15.9085 0.0981852 16.3086 0.261859C17.8526 0.89487 18.2976 2.05298 18.399 2.91317C18.7653 6.00852 17.3834 8.9211 17.0916 9.49421C17.0429 9.61555 17.0543 9.73947 17.1219 9.84893C17.189 9.95735 17.3043 10.0198 17.4381 10.0198H22.6313C24.8355 10.0198 26.0002 11.1692 26.0002 13.3439C26.0002 15.5749 24.6461 19.7535 23.8368 22.25C23.6225 22.9098 23.4535 23.4318 23.3884 23.6827C23.3849 23.6936 23.3819 23.7039 23.3789 23.7148C22.9201 25.1238 21.6719 26 20.1239 26Z" fill="#EAD620"/>
<path fill-rule="evenodd" clip-rule="evenodd" d="M4.21693 23.8021H0.58012C0.258991 23.8021 0 23.532 0 23.199V10.623C0 10.2894 0.259488 10.0199 0.58012 10.0199H4.21693C4.53756 10.0199 4.79705 10.2894 4.79705 10.623V23.199C4.79755 23.532 4.53806 23.8021 4.21693 23.8021Z" fill="#EAD620"/>
</svg>
