<svg width="50" height="40" viewBox="0 0 50 40" fill="none" xmlns="http://www.w3.org/2000/svg">
<path d="M46.9687 0H3.0308C1.35929 0 0 1.31957 0 2.94133V29.1408C0 30.7625 1.35983 32.0821 3.0308 32.0821H21.6736V34.7316H8.69043C7.09289 34.7316 5.79344 35.9132 5.79344 37.3658C5.79344 38.8184 7.09289 40 8.69043 40H41.3085C42.906 40 44.2055 38.8184 44.2055 37.3658C44.2055 35.9132 42.906 34.7316 41.3085 34.7316H28.3259V32.0821H46.9687C48.6402 32.0821 50 30.7625 50 29.1408V2.94133C49.9995 1.31957 48.6402 0 46.9687 0ZM1.71665 8.00841H48.2833V23.9352H1.71665V8.00841ZM3.0308 1.56093H46.9687C47.6932 1.56093 48.2828 2.18015 48.2828 2.94133V6.44748H1.71665V2.94133C1.71665 2.18015 2.30628 1.56093 3.0308 1.56093ZM27.4676 36.293H41.3085C41.959 36.293 42.4888 36.7743 42.4888 37.3663C42.4888 37.9578 41.9596 38.4396 41.3085 38.4396H8.69043C8.03988 38.4396 7.51009 37.9583 7.51009 37.3663C7.51009 36.7748 8.03934 36.293 8.69043 36.293H22.5319C23.0057 36.293 23.3902 35.9439 23.3902 35.5126V32.0826H26.6092V35.5126C26.6092 35.9439 26.9932 36.293 27.4676 36.293ZM46.9687 30.5217H3.0308C2.30628 30.5217 1.71665 29.9024 1.71665 29.1413V25.4966H48.2833V29.1413C48.2828 29.9024 47.6932 30.5217 46.9687 30.5217ZM20.769 13.0537L16.881 16.0411L20.769 19.0284C21.1313 19.3063 21.1764 19.7989 20.8707 20.1283C20.701 20.3108 20.4584 20.4053 20.2147 20.4053C20.0189 20.4053 19.8226 20.345 19.661 20.2208L14.9968 16.637C14.8037 16.4887 14.6922 16.2705 14.6922 16.0411C14.6922 15.8116 14.8037 15.5934 14.9968 15.4451L19.661 11.8613C20.0227 11.5833 20.5645 11.6244 20.8707 11.9538C21.1764 12.2832 21.1307 12.7758 20.769 13.0537ZM35.3067 16.0415C35.3067 16.2715 35.1952 16.4892 35.0021 16.6375L30.3379 20.2213C30.1769 20.345 29.98 20.4058 29.7842 20.4058C29.5405 20.4058 29.2979 20.3118 29.1282 20.1288C28.8225 19.7994 28.8676 19.3073 29.2299 19.0289L33.1179 16.0415L29.2299 13.0542C28.8676 12.7763 28.8225 12.2836 29.1282 11.9542C29.4339 11.6249 29.9756 11.5838 30.3379 11.8618L35.0021 15.4456C35.1958 15.5934 35.3067 15.8116 35.3067 16.0415ZM27.3104 10.9047L24.1642 21.5819C24.0614 21.9306 23.7144 22.1606 23.3358 22.1606C23.2624 22.1606 23.1873 22.1517 23.1134 22.1339C22.6554 22.0221 22.3834 21.5943 22.5063 21.1779L25.6524 10.5006C25.7754 10.0842 26.2459 9.8374 26.7039 9.94869C27.1613 10.0605 27.4327 10.4883 27.3104 10.9047Z" fill="#333333"/>
</svg>
