<svg width="52" height="40" viewBox="0 0 52 40" fill="none" xmlns="http://www.w3.org/2000/svg">
<path d="M23.5676 22.2201C23.3999 22.2201 23.2299 22.1814 23.0698 22.1009C22.5262 21.8249 22.3088 21.161 22.5842 20.6174L27.2509 11.407C27.5263 10.8634 28.1891 10.6459 28.7344 10.9213C29.278 11.1973 29.4954 11.8612 29.22 12.4048L24.5533 21.6152C24.359 21.9988 23.9711 22.2201 23.5676 22.2201Z" fill="#333333"/>
<path d="M31.3028 21.8718C31.0203 21.8718 30.7383 21.7642 30.5225 21.5484C30.0915 21.1174 30.0915 20.4187 30.5225 19.9872L32.6947 17.8155L30.5225 15.6438C30.0915 15.2128 30.0915 14.5141 30.5225 14.0825C30.9535 13.6515 31.6522 13.6515 32.0832 14.0825L35.0363 17.0351C35.2433 17.2421 35.3597 17.523 35.3597 17.816C35.3597 18.1091 35.2433 18.3894 35.0363 18.597L32.0832 21.5495C31.8674 21.7642 31.5849 21.8718 31.3028 21.8718Z" fill="#333333"/>
<path d="M20.574 18.5665C20.2914 18.5665 20.0094 18.4589 19.7936 18.2431L16.8405 15.2905C16.6335 15.0836 16.5171 14.8027 16.5171 14.5102C16.5171 14.2171 16.6335 13.9368 16.8405 13.7293L19.7936 10.7767C20.2246 10.3462 20.9233 10.3457 21.3544 10.7767C21.7854 11.2077 21.7854 11.9064 21.3544 12.338L19.1821 14.5096L21.3544 16.6818C21.7854 17.1129 21.7854 17.8115 21.3544 18.2426C21.1391 18.4589 20.8566 18.5665 20.574 18.5665Z" fill="#333333"/>
<path d="M50.7733 30.4662H49.8644V3.51881C49.8644 1.57839 48.286 0 46.3456 0H5.53153C3.59111 0 2.01272 1.57839 2.01272 3.51881V30.4662H1.10377C0.493936 30.4662 0 30.9607 0 31.57C0 36.2179 3.78151 40 8.42948 40H43.4471C48.095 39.9994 51.8771 36.2179 51.8771 31.57C51.8771 30.9601 51.3826 30.4662 50.7733 30.4662ZM4.22081 3.51881C4.22081 2.79584 4.80857 2.20754 5.53209 2.20754H46.3456C47.0691 2.20754 47.6568 2.79584 47.6568 3.51881V30.4662H33.6158C33.2466 30.4662 32.9022 30.6511 32.6975 30.9579L31.5363 32.7002H20.3408L19.1796 30.9579C18.9749 30.6511 18.6305 30.4662 18.2613 30.4662H4.22081V3.51881ZM43.4476 37.7919H8.42948C5.37535 37.7919 2.82785 35.58 2.30522 32.6732H17.6702L18.8314 34.4155C19.0361 34.7229 19.3805 34.9072 19.7497 34.9072H32.1263C32.4955 34.9072 32.8399 34.7229 33.0446 34.4155L34.2058 32.6732H49.5708C49.0492 35.58 46.5017 37.7919 43.4476 37.7919Z" fill="#333333"/>
<path d="M44.8346 29.2323H7.04273C6.43345 29.2323 5.93896 28.7384 5.93896 28.1285V4.54542C5.93896 3.93614 6.43345 3.44165 7.04273 3.44165H44.8352C45.4445 3.44165 45.939 3.93614 45.939 4.54542V28.1285C45.9384 28.7384 45.4445 29.2323 44.8346 29.2323ZM8.1465 27.0248H43.7314V5.64919H8.1465V27.0248Z" fill="#333333"/>
</svg>
