<svg width="50" height="40" viewBox="0 0 50 40" fill="none" xmlns="http://www.w3.org/2000/svg">
<path fill-rule="evenodd" clip-rule="evenodd" d="M38.0474 25.8772C41.184 25.8772 43.7501 27.9284 43.7501 30.4377C43.7501 32.9471 41.184 34.9999 38.0474 34.9999C34.9107 34.9999 32.3467 32.9471 32.3467 30.4377C32.3467 27.9284 34.9107 25.8772 38.0474 25.8772ZM38.0474 27.5439C36.0366 27.5439 34.43 28.8292 34.43 30.4377C34.43 32.0463 36.0366 33.3333 38.0474 33.3333C40.0581 33.3333 41.6667 32.0463 41.6667 30.4377C41.6667 28.8292 40.0581 27.5439 38.0474 27.5439Z" fill="#333333"/>
<path fill-rule="evenodd" clip-rule="evenodd" d="M26.8638 5C30.0004 5 32.5665 7.05285 32.5665 9.56217C32.5665 12.0715 30.0004 14.1227 26.8638 14.1227C23.7271 14.1227 21.1631 12.0715 21.1631 9.56217C21.1631 7.05285 23.7271 5 26.8638 5ZM26.8638 6.66667C24.853 6.66667 23.2464 7.95359 23.2464 9.56217C23.2464 11.1708 24.853 12.4561 26.8638 12.4561C28.8745 12.4561 30.4832 11.1708 30.4832 9.56217C30.4832 7.95359 28.8745 6.66667 26.8638 6.66667Z" fill="#333333"/>
<path fill-rule="evenodd" clip-rule="evenodd" d="M11.9527 16.9304C15.0894 16.9304 17.6534 18.9816 17.6534 21.491C17.6534 24.0003 15.0894 26.0531 11.9527 26.0531C8.81606 26.0531 6.25 24.0003 6.25 21.491C6.25 18.9816 8.81606 16.9304 11.9527 16.9304ZM11.9527 18.5971C9.94198 18.5971 8.33333 19.8824 8.33333 21.491C8.33333 23.0996 9.94198 24.3865 11.9527 24.3865C13.9635 24.3865 15.5701 23.0996 15.5701 21.491C15.5701 19.8824 13.9635 18.5971 11.9527 18.5971Z" fill="#333333"/>
<path d="M30.5809 11.7024C30.3738 11.7028 30.1716 11.7525 30.0001 11.8452C29.8285 11.9379 29.6953 12.0694 29.6176 12.223C29.5399 12.3765 29.5211 12.5451 29.5637 12.7072C29.6062 12.8693 29.7082 13.0175 29.8566 13.1331L33.5838 16.1148C33.8043 16.2912 33.9785 16.6441 33.9785 17.0181C33.9785 17.3922 33.8043 17.7435 33.5838 17.9198L29.8566 20.9016C29.1451 21.4708 28.8516 22.2373 28.8516 22.9817C28.8516 23.7261 29.1451 24.4942 29.8566 25.0634L33.5838 28.0452C33.6798 28.1251 33.7948 28.189 33.922 28.233C34.0492 28.277 34.1861 28.3002 34.3247 28.3013C34.4633 28.3024 34.6007 28.2814 34.7291 28.2395C34.8574 28.1976 34.9739 28.1357 35.0719 28.0573C35.1699 27.9789 35.2474 27.8856 35.2998 27.783C35.3521 27.6803 35.3784 27.5703 35.377 27.4595C35.3756 27.3486 35.3465 27.2391 35.2916 27.1373C35.2366 27.0355 35.1568 26.9436 35.0568 26.8668L31.3296 23.885C31.1091 23.7086 30.9349 23.3557 30.9349 22.9817C30.9349 22.6077 31.1091 22.2564 31.3296 22.08L35.0568 19.0982C35.7683 18.529 36.0618 17.7625 36.0618 17.0181C36.0618 16.2738 35.7683 15.5057 35.0568 14.9364L31.3296 11.9547C31.2323 11.8746 31.1159 11.8111 30.9872 11.7677C30.8586 11.7244 30.7204 11.7022 30.5809 11.7024Z" fill="#333333"/>
<path d="M28.7271 23.0811C27.7966 23.0811 26.8385 23.3159 26.127 23.8851L22.3998 26.8669C22.1793 27.0433 21.7402 27.1826 21.2726 27.1826C20.8051 27.1826 20.364 27.0433 20.1435 26.8669L16.4163 23.8851C16.3203 23.8051 16.2053 23.7413 16.0781 23.6973C15.9509 23.6533 15.814 23.6301 15.6754 23.6289C15.5368 23.6278 15.3994 23.6488 15.271 23.6907C15.1427 23.7326 15.0262 23.7946 14.9282 23.873C14.8302 23.9514 14.7527 24.0446 14.7003 24.1473C14.6479 24.2499 14.6217 24.3599 14.6231 24.4708C14.6245 24.5816 14.6536 24.6912 14.7085 24.7929C14.7635 24.8947 14.8433 24.9867 14.9433 25.0635L18.6705 28.0452C19.382 28.6145 20.3421 28.8493 21.2726 28.8493C22.2031 28.8493 23.1612 28.6145 23.8727 28.0452L27.6 25.0635C27.8204 24.8871 28.2595 24.7477 28.7271 24.7477C29.1946 24.7477 29.6357 24.8871 29.8562 25.0635L33.5834 28.0452C33.6794 28.1252 33.7944 28.1891 33.9216 28.2331C34.0488 28.277 34.1857 28.3003 34.3243 28.3014C34.4629 28.3025 34.6004 28.2815 34.7287 28.2396C34.857 28.1977 34.9735 28.1357 35.0715 28.0573C35.1695 27.9789 35.247 27.8857 35.2994 27.783C35.3518 27.6804 35.378 27.5704 35.3766 27.4596C35.3752 27.3487 35.3462 27.2392 35.2912 27.1374C35.2362 27.0356 35.1564 26.9437 35.0564 26.8669L31.3292 23.8851C30.6177 23.3159 29.6576 23.0811 28.7271 23.0811Z" fill="#333333"/>
<path fill-rule="evenodd" clip-rule="evenodd" d="M1.04167 0C0.765408 2.20753e-05 0.500471 0.0878262 0.305127 0.244102C0.109783 0.400377 2.75941e-05 0.612326 0 0.833333V39.1667C2.75941e-05 39.3877 0.109783 39.5996 0.305127 39.7559C0.500471 39.9122 0.765408 40 1.04167 40H48.9583C49.2346 40 49.4995 39.9122 49.6949 39.7559C49.8902 39.5996 50 39.3877 50 39.1667V0.833333C50 0.612326 49.8902 0.400377 49.6949 0.244102C49.4995 0.0878262 49.2346 2.20753e-05 48.9583 0H1.04167ZM2.08333 1.66667H47.9167V38.3333H2.08333V1.66667Z" fill="#333333"/>
</svg>
