<svg width="50" height="37" viewBox="0 0 50 37" fill="none" xmlns="http://www.w3.org/2000/svg">
<path d="M46.0909 32.2092C45.6051 31.6248 45.3425 30.8837 45.3505 30.1202C45.3586 29.3567 45.6368 28.6215 46.1348 28.0477C48.5818 25.2221 50 21.8719 50 18.2794C50 8.18345 38.8075 0 25 0C11.1925 0 0 8.18345 0 18.2816C0 28.3798 11.1925 36.5632 25 36.5632C28.2907 36.5733 31.5647 36.0902 34.7155 35.1299C35.1326 35.0024 35.5713 34.9638 36.0039 35.0165C36.4365 35.0692 36.8536 35.2121 37.2289 35.436C38.5113 36.1995 39.9314 36.6966 41.4061 36.8981C42.8808 37.0996 44.3804 37.0016 45.8171 36.6097C47.3765 36.1879 47.9401 34.2396 46.8321 33.0519C46.5872 32.7879 46.339 32.5077 46.0909 32.2092ZM11.9037 22.6952C11.0402 22.6952 10.196 22.4361 9.47803 21.9508C8.76003 21.4655 8.20046 20.7758 7.87009 19.9688C7.53972 19.1618 7.45338 18.2738 7.62201 17.4172C7.79064 16.5606 8.20665 15.7738 8.81743 15.1563C9.42821 14.5388 10.2063 14.1185 11.0533 13.9483C11.9004 13.7782 12.7782 13.8659 13.5759 14.2005C14.3736 14.535 15.0553 15.1013 15.5348 15.8278C16.0143 16.5542 16.2699 17.4082 16.2695 18.2816C16.2687 19.4523 15.8084 20.5747 14.9897 21.4023C14.1711 22.2299 13.0612 22.6949 11.9037 22.6952ZM25 22.6952C24.1364 22.6952 23.2923 22.4361 22.5743 21.9508C21.8563 21.4655 21.2967 20.7758 20.9663 19.9688C20.636 19.1618 20.5496 18.2738 20.7183 17.4172C20.8869 16.5606 21.3029 15.7738 21.9137 15.1563C22.5245 14.5388 23.3026 14.1185 24.1496 13.9483C24.9966 13.7782 25.8745 13.8659 26.6722 14.2005C27.4699 14.535 28.1516 15.1013 28.631 15.8278C29.1105 16.5542 29.3662 17.4082 29.3658 18.2816C29.3649 19.4523 28.9046 20.5747 28.086 21.4023C27.2674 22.2299 26.1574 22.6949 25 22.6952ZM38.0963 22.6952C37.2327 22.6952 36.3885 22.4361 35.6705 21.9508C34.9525 21.4655 34.393 20.7758 34.0626 19.9688C33.7322 19.1618 33.6459 18.2738 33.8145 17.4172C33.9832 16.5606 34.3992 15.7738 35.0099 15.1563C35.6207 14.5388 36.3988 14.1185 37.2458 13.9483C38.0929 13.7782 38.9707 13.8659 39.7684 14.2005C40.5662 14.535 41.2478 15.1013 41.7273 15.8278C42.2068 16.5542 42.4625 17.4082 42.462 18.2816C42.4612 19.4523 42.0009 20.5747 41.1823 21.4023C40.3636 22.2299 39.2537 22.6949 38.0963 22.6952Z" fill="#EAD620"/>
</svg>
