<svg width="46" height="40" viewBox="0 0 46 40" fill="none" xmlns="http://www.w3.org/2000/svg">
<path d="M42.7079 0H2.75586C1.23598 0 0 1.31957 0 2.94133V29.1408C0 30.7625 1.23648 32.0821 2.75586 32.0821H19.7074V34.7316H7.90207C6.44946 34.7316 5.26788 35.9132 5.26788 37.3658C5.26788 38.8184 6.44946 40 7.90207 40H37.5612C39.0138 40 40.1954 38.8184 40.1954 37.3658C40.1954 35.9132 39.0138 34.7316 37.5612 34.7316H25.7563V32.0821H42.7079C44.2278 32.0821 45.4642 30.7625 45.4642 29.1408V2.94133C45.4637 1.31957 44.2278 0 42.7079 0ZM1.56093 8.00841H43.9033V23.9352H1.56093V8.00841ZM2.75586 1.56093H42.7079C43.3667 1.56093 43.9028 2.18015 43.9028 2.94133V6.44748H1.56093V2.94133C1.56093 2.18015 2.09706 1.56093 2.75586 1.56093ZM24.9758 36.293H37.5612C38.1527 36.293 38.6344 36.7743 38.6344 37.3663C38.6344 37.9578 38.1532 38.4396 37.5612 38.4396H7.90207C7.31054 38.4396 6.82881 37.9583 6.82881 37.3663C6.82881 36.7748 7.31005 36.293 7.90207 36.293H20.4879C20.9187 36.293 21.2684 35.9439 21.2684 35.5126V32.0826H24.1954V35.5126C24.1954 35.9439 24.5445 36.293 24.9758 36.293ZM42.7079 30.5217H2.75586C2.09706 30.5217 1.56093 29.9024 1.56093 29.1413V25.4966H43.9033V29.1413C43.9028 29.9024 43.3667 30.5217 42.7079 30.5217ZM18.8849 13.0537L15.3496 16.0411L18.8849 19.0284C19.2143 19.3063 19.2554 19.7989 18.9774 20.1283C18.8231 20.3108 18.6025 20.4053 18.381 20.4053C18.2029 20.4053 18.0244 20.345 17.8775 20.2208L13.6364 16.637C13.4608 16.4887 13.3594 16.2705 13.3594 16.0411C13.3594 15.8116 13.4608 15.5934 13.6364 15.4451L17.8775 11.8613C18.2064 11.5833 18.699 11.6244 18.9774 11.9538C19.2554 12.2832 19.2138 12.7758 18.8849 13.0537ZM32.1039 16.0415C32.1039 16.2715 32.0025 16.4892 31.8269 16.6375L27.5858 20.2213C27.4394 20.345 27.2603 20.4058 27.0823 20.4058C26.8607 20.4058 26.6401 20.3118 26.4858 20.1288C26.2079 19.7994 26.2489 19.3073 26.5783 19.0289L30.1136 16.0415L26.5783 13.0542C26.2489 12.7763 26.2079 12.2836 26.4858 11.9542C26.7638 11.6249 27.2564 11.5838 27.5858 11.8618L31.8269 15.4456C32.003 15.5934 32.1039 15.8116 32.1039 16.0415ZM24.8329 10.9047L21.9722 21.5819C21.8787 21.9306 21.5632 22.1606 21.2189 22.1606C21.1521 22.1606 21.0839 22.1517 21.0166 22.1339C20.6002 22.0221 20.3529 21.5943 20.4647 21.1779L23.3254 10.5006C23.4372 10.0842 23.865 9.8374 24.2814 9.94869C24.6974 10.0605 24.9442 10.4883 24.8329 10.9047Z" fill="#333333"/>
</svg>
