<svg width="13" height="16" viewBox="0 0 13 16" fill="none" xmlns="http://www.w3.org/2000/svg">
<path d="M0 1C0 0.447715 0.447715 0 1 0H9.60034H11.3145C11.8645 0 12.3112 0.444076 12.3145 0.994016L12.3262 2.93828V15C12.3262 15.5523 11.8784 16 11.3262 16H1C0.447717 16 0 15.5523 0 15V1Z" fill="white"/>
<path fill-rule="evenodd" clip-rule="evenodd" d="M12.1465 15.8213C12.2605 15.708 12.3246 15.554 12.3252 15.3933V0.606666C12.3239 0.272007 12.0532 0.00133119 11.7185 0H0.606666C0.272007 0.00133324 0.00133119 0.272007 0 0.606666V15.3933C0.00133341 15.728 0.272007 15.9987 0.606666 16H11.7185C11.8745 16.0007 12.0239 15.9407 12.1372 15.8333L12.1465 15.8227L12.1465 15.8213ZM10.7079 8.51597C10.8326 8.51597 10.9332 8.61664 10.9332 8.7413C10.9332 8.8653 10.8325 8.96597 10.7079 8.96597H3.56262C3.43862 8.96597 3.33729 8.8653 3.33729 8.7413C3.33729 8.61663 3.43862 8.51597 3.56262 8.51597H10.7079ZM10.7079 10.296C10.8292 10.3007 10.9245 10.4 10.9245 10.5213C10.9245 10.642 10.8292 10.7414 10.7079 10.746H3.56262C3.44195 10.7413 3.34596 10.642 3.34596 10.5213C3.34596 10.4 3.44196 10.3007 3.56262 10.296H10.7079ZM10.7079 12.0761C10.8292 12.0807 10.9245 12.1801 10.9245 12.3014C10.9245 12.4221 10.8292 12.5214 10.7079 12.5261H3.56262C3.44195 12.5214 3.34596 12.4221 3.34596 12.3014C3.34596 12.1801 3.44196 12.0807 3.56262 12.0761H10.7079ZM10.7079 13.8561C10.8292 13.8608 10.9245 13.9601 10.9245 14.0814C10.9245 14.2021 10.8292 14.3014 10.7079 14.3061H3.56262C3.44195 14.3014 3.34596 14.2021 3.34596 14.0814C3.34596 13.9601 3.44196 13.8608 3.56262 13.8561H10.7079ZM6.16254 1.43351C6.91187 1.43351 7.63054 1.73151 8.16053 2.26084C8.68986 2.79085 8.98786 3.5095 8.98786 4.25883C8.98786 5.00816 8.68986 5.72683 8.16053 6.25682C7.63052 6.78615 6.91187 7.08415 6.16254 7.08415C5.41321 7.08415 4.69454 6.78615 4.16455 6.25682C3.63522 5.72681 3.33722 5.00816 3.33722 4.25883C3.33722 3.5095 3.63522 2.79083 4.16455 2.26084C4.69456 1.73151 5.41321 1.43351 6.16254 1.43351ZM7.84787 5.93345C7.40186 6.38212 6.7952 6.63479 6.16254 6.63479C5.52988 6.63479 4.92322 6.38212 4.47721 5.93345C4.60588 5.10212 5.32121 4.4888 6.16254 4.4888C7.00387 4.4888 7.7192 5.10214 7.84787 5.93345ZM6.16254 4.03343C6.03721 4.03677 5.91588 3.98877 5.82722 3.90077C5.73788 3.81277 5.68855 3.69209 5.69055 3.56677C5.69055 3.30612 5.90189 3.09478 6.16254 3.09478C6.4232 3.09478 6.63454 3.30612 6.63454 3.56677C6.63654 3.69211 6.5872 3.81277 6.49787 3.90077C6.40921 3.98877 6.28786 4.03677 6.16254 4.03343ZM4.12923 5.48542C3.68724 4.75142 3.67456 3.83609 4.09589 3.09081C4.51723 2.34481 5.30789 1.88349 6.16385 1.88349C7.02051 1.88349 7.81117 2.34481 8.23249 3.09081C8.65383 3.83614 8.64115 4.75147 8.19916 5.48474V5.48541C7.98383 4.86208 7.4965 4.37209 6.87517 4.15341L6.8745 4.15408C7.1025 3.87874 7.15117 3.49608 6.9985 3.17341C6.8465 2.85009 6.52117 2.64341 6.16384 2.64341C5.80719 2.64341 5.48185 2.85007 5.32985 3.17341C5.17718 3.49608 5.22585 3.87874 5.45318 4.15408C4.83186 4.37207 4.34389 4.86208 4.12923 5.48542ZM2.33382 8.96667V10.2967H1.00382V8.96667H2.33382ZM0.778492 8.51667H2.55854C2.6832 8.51667 2.78387 8.61734 2.7832 8.74134V10.5214H2.78387C2.78387 10.646 2.6832 10.7467 2.55854 10.7467H0.778493C0.654494 10.7467 0.553829 10.646 0.553829 10.5214V8.74134C0.553829 8.61734 0.654493 8.51667 0.778492 8.51667ZM2.33382 12.5266V13.8566L1.00382 13.8573V12.526L2.33382 12.5266ZM0.778492 12.076H2.55854C2.61854 12.076 2.67587 12.1 2.71787 12.142C2.75987 12.184 2.7832 12.2413 2.7832 12.3013V14.0814H2.78387C2.78387 14.2054 2.6832 14.306 2.55854 14.306H0.778493C0.654494 14.306 0.553829 14.2054 0.553829 14.0814V12.2999C0.554496 12.1759 0.654493 12.076 0.778492 12.076Z" fill="#24292F"/>
</svg>
