<svg width="48" height="40" viewBox="0 0 48 40" fill="none" xmlns="http://www.w3.org/2000/svg">
<path fill-rule="evenodd" clip-rule="evenodd" d="M16.0627 3.33333V0C10.5516 0 6.08249 3.73167 6.08249 8.33333V12.7767L0.401735 19.0767C-0.139194 19.675 -0.133198 20.5017 0.415715 21.0967L6.08249 27.235V31.6667C6.08249 36.2683 10.5516 40 16.0627 40V36.6667C12.7553 36.6667 10.0746 34.4283 10.0746 31.6667V26.6667C10.0746 26.2983 9.92887 25.94 9.6594 25.6483L4.50561 20.0667L9.67338 14.335C9.93287 14.0467 10.0746 13.695 10.0746 13.3333V8.33333C10.0746 5.57167 12.7553 3.33333 16.0627 3.33333ZM32.0311 0V3.33333C35.2946 3.37667 37.9254 5.59833 37.9254 8.33333V13.3333C37.9254 13.695 38.0651 14.0467 38.3266 14.335L43.4944 20.0667L38.3406 25.6483C38.0711 25.94 37.9254 26.2983 37.9254 26.6667V31.6667C37.9254 34.4017 35.2946 36.6233 32.0311 36.6667V40C37.5003 39.9567 41.9175 36.2433 41.9175 31.6667V27.235L47.5843 21.0967C48.1332 20.5017 48.1392 19.675 47.5983 19.0767L41.9175 12.7767V8.33333C41.9175 3.75667 37.5003 0.0433333 32.0311 0Z" fill="#333333"/>
</svg>
