<svg width="10" height="16" viewBox="0 0 10 16" fill="none" xmlns="http://www.w3.org/2000/svg">
<path fill-rule="evenodd" clip-rule="evenodd" d="M2.49368 4.86721C1.15705 4.86721 0.0634766 3.77201 0.0634766 2.43339C0.0634766 1.0952 1.15705 0 2.49368 0H7.33437C8.67057 0 9.76413 1.0952 9.76413 2.43339C9.76413 3.77201 8.67057 4.86721 7.33437 4.86721H2.49368Z" fill="#F44E1C"/>
<path fill-rule="evenodd" clip-rule="evenodd" d="M2.42932 10.4386H4.90332V5.57004H2.42932C1.76232 5.57004 1.15444 5.84373 0.713863 6.28497C0.273283 6.7262 0 7.33543 0 8.00562C0 9.34337 1.09313 10.4386 2.42932 10.4386Z" fill="#A259FF"/>
<path fill-rule="evenodd" clip-rule="evenodd" d="M7.56936 5.61986C6.22747 5.61986 5.13916 6.70936 5.13916 8.05368C5.13916 9.39757 6.22747 10.4871 7.56936 10.4871C8.91125 10.4871 9.99956 9.39757 9.99956 8.05368C9.99956 6.70936 8.91125 5.61986 7.56936 5.61986Z" fill="#1CBCFF"/>
<path fill-rule="evenodd" clip-rule="evenodd" d="M4.89909 11.1328H2.38174V11.1376C1.08277 11.1863 0.0439453 12.2534 0.0439453 13.5666C0.0439453 14.9105 1.13182 16 2.47371 16C3.77399 16 4.83296 14.9763 4.89778 13.6903H4.89909V13.6627C4.90041 13.6306 4.90391 13.5991 4.90391 13.5666C4.90391 13.5342 4.90041 13.5026 4.89909 13.4701V11.1328Z" fill="#03D182"/>
</svg>
