<svg width="50" height="40" viewBox="0 0 50 40" fill="none" xmlns="http://www.w3.org/2000/svg">
<path d="M0.746217 31.2374C0.721154 31.3206 0.721154 31.4062 0.746217 31.4894C0.751589 31.5174 0.759818 31.5452 0.770848 31.5725C0.814529 31.6777 0.89779 31.774 1.01305 31.8527C1.10853 31.9149 1.22185 31.9643 1.34652 31.9978C1.47119 32.0314 1.60478 32.0486 1.73964 32.0485C1.83742 32.0465 1.93422 32.0352 2.027 32.015L31.4213 26.2099C32.1307 26.0704 32.7852 25.832 33.3398 25.5112C33.8944 25.1904 34.3358 24.7948 34.6335 24.3517L41.2508 14.5286L41.6408 14.7834C42.2182 15.1604 43.0011 15.3721 43.8175 15.3721C44.6339 15.3721 45.4169 15.1604 45.9942 14.7834L48.8986 12.8876C49.1847 12.7009 49.4116 12.4791 49.5665 12.2351C49.7213 11.991 49.801 11.7294 49.801 11.4652C49.801 11.201 49.7213 10.9394 49.5665 10.6953C49.4116 10.4513 49.1847 10.2295 48.8986 10.0428L34.3954 0.569594C33.8089 0.203989 33.0294 0 32.2187 0C31.408 0 30.6284 0.203989 30.042 0.569594L27.1274 2.4653C26.5502 2.84242 26.226 3.35383 26.226 3.88708C26.226 4.42032 26.5502 4.93174 27.1274 5.30885L27.5194 5.56492L12.4805 9.88723C11.8026 10.0821 11.1973 10.3706 10.7063 10.7328C10.2152 11.0949 9.84998 11.5223 9.63572 11.9854L0.74827 31.1851C0.733903 31.2025 0.752375 31.2199 0.746217 31.2374ZM28.5785 3.41315L31.4829 1.51745C31.6753 1.39178 31.9363 1.32118 32.2084 1.32118C32.4805 1.32118 32.7415 1.39178 32.934 1.51745L47.4474 10.9973C47.543 11.0596 47.6188 11.1335 47.6706 11.215C47.7223 11.2964 47.7489 11.3837 47.7489 11.4719C47.7489 11.5601 47.7223 11.6474 47.6706 11.7288C47.6188 11.8103 47.543 11.8842 47.4474 11.9465L44.5431 13.8422C44.3506 13.9679 44.0897 14.0385 43.8175 14.0385C43.5454 14.0385 43.2844 13.9679 43.092 13.8422L41.6408 12.8944L30.0317 5.31019L28.5785 4.361C28.3861 4.2353 28.278 4.06482 28.278 3.88708C28.278 3.70933 28.3861 3.53886 28.5785 3.41315ZM11.5979 12.3728C11.7266 12.0949 11.9458 11.8385 12.2406 11.6212C12.5354 11.4039 12.8987 11.2308 13.3056 11.1139L29.0773 6.58249L39.695 13.5137L32.7534 23.8168C32.5744 24.0826 32.3095 24.3199 31.9768 24.5124C31.6441 24.705 31.2515 24.8482 30.826 24.9322L5.34594 29.9651L19.8717 20.4772C19.9005 20.453 19.9266 20.4274 19.9497 20.4008C20.8089 20.7369 21.8267 20.8563 22.8114 20.7365C23.796 20.6166 24.6796 20.2657 25.2957 19.7499C25.9118 19.2341 26.218 18.5889 26.1565 17.9359C26.095 17.2829 25.6701 16.6671 24.9619 16.2045C24.2536 15.7419 23.3109 15.4644 22.3112 15.4242C21.3114 15.3841 20.3237 15.584 19.534 15.9865C18.7443 16.3889 18.2071 16.966 18.0236 17.6092C17.8401 18.2523 18.0229 18.9171 18.5375 19.4784C18.4967 19.4935 18.4576 19.5105 18.4206 19.5293L3.8948 29.0172L11.5979 12.3728ZM20.5962 17.159C20.8834 16.9717 21.2491 16.8441 21.6472 16.7925C22.0453 16.7409 22.4579 16.7676 22.8328 16.8691C23.2077 16.9706 23.5281 17.1424 23.7536 17.3629C23.979 17.5833 24.0993 17.8424 24.0993 18.1075C24.0993 18.3726 23.979 18.6318 23.7536 18.8522C23.5281 19.0727 23.2077 19.2445 22.8328 19.346C22.4579 19.4475 22.0453 19.4742 21.6472 19.4226C21.2491 19.3709 20.8834 19.2434 20.5962 19.0561C20.4054 18.9315 20.254 18.7837 20.1507 18.6209C20.0474 18.4582 19.9943 18.2837 19.9943 18.1075C19.9943 17.9314 20.0474 17.7569 20.1507 17.5941C20.254 17.4314 20.4054 17.2835 20.5962 17.159ZM44.2742 31.1355C43.0019 30.481 41.534 30.0076 39.9648 29.7458C38.3957 29.4839 36.7601 29.4394 35.163 29.6152C32.0188 29.985 29.1159 30.9608 26.8277 32.4172C25.7623 33.0975 24.7576 33.8173 23.8187 34.573C22.3932 35.8331 20.6313 36.915 18.6176 37.7664C17.2847 38.2441 15.8159 38.5382 14.3021 38.6304C12.7882 38.7226 11.2616 38.6111 9.81635 38.3027C8.13031 37.958 6.56645 37.3971 5.21628 36.6529C3.86611 35.9086 2.75675 34.996 1.95311 33.9683C1.83253 33.8083 1.61958 33.6861 1.3611 33.6287C1.10262 33.5712 0.819796 33.5832 0.574832 33.662C0.329868 33.7407 0.142836 33.8798 0.0548809 34.0487C-0.0330743 34.2175 -0.0147485 34.4022 0.105828 34.5622C1.03452 35.7521 2.31721 36.809 3.87885 37.6711C5.44048 38.5332 7.24969 39.1832 9.20059 39.583C10.5399 39.8572 11.9349 39.9978 13.3385 40C15.5346 40.0037 17.6953 39.6385 19.6131 38.9395C21.8458 38.0118 23.8009 36.826 25.3827 35.4404C26.2746 34.7238 27.2278 34.0408 28.2378 33.3945C30.2289 32.1223 32.7573 31.2683 35.4976 30.9424C36.8186 30.7971 38.1716 30.8342 39.4694 31.0513C40.7671 31.2683 41.9809 31.6605 43.0324 32.2027C44.4145 32.926 45.5609 33.8227 46.4041 34.8399C47.2473 35.8572 47.7703 36.9744 47.9421 38.1257C47.9736 38.3016 48.109 38.4626 48.3195 38.5742C48.53 38.6859 48.7988 38.7395 49.0689 38.7237C49.2039 38.7154 49.3351 38.6898 49.4549 38.6483C49.5747 38.6068 49.6807 38.5502 49.7667 38.4817C49.8528 38.4133 49.9173 38.3344 49.9564 38.2496C49.9955 38.1648 50.0085 38.0757 49.9946 37.9876C49.791 36.6539 49.1805 35.3603 48.1991 34.1832C47.2177 33.0062 45.8852 31.9694 44.2804 31.1341L44.2742 31.1355Z" fill="#333333"/>
</svg>
