<svg width="262" height="26" viewBox="0 0 262 26" fill="none" xmlns="http://www.w3.org/2000/svg">
<g clip-path="url(#clip0_222_59)">
<mask id="mask0_222_59" style="mask-type:luminance" maskUnits="userSpaceOnUse" x="0" y="0" width="262" height="26">
<path d="M261.09 0H0V26H261.09V0Z" fill="white"/>
</mask>
<g mask="url(#mask0_222_59)">
<path d="M4.67659 0.406982H0.767913C0.343806 0.406982 0 0.750789 0 1.1749V24.8235C0 25.2477 0.343806 25.5915 0.767913 25.5915H4.67659C5.1007 25.5915 5.4445 25.2477 5.4445 24.8235V1.1749C5.4445 0.750789 5.1007 0.406982 4.67659 0.406982Z" fill="#070303"/>
<path d="M10.2579 0.777162C10.255 0.727797 10.2626 0.678376 10.2802 0.632153C10.2978 0.585929 10.3249 0.543953 10.3599 0.508986C10.3949 0.474018 10.4368 0.446854 10.4831 0.42928C10.5293 0.411707 10.5787 0.404123 10.6281 0.407028H15.0727C15.2019 0.403214 15.3295 0.435925 15.4409 0.501402C15.5523 0.566878 15.6429 0.662462 15.7024 0.777162L24.5918 16.6284H24.7715V0.777162C24.7685 0.727245 24.7762 0.677265 24.7941 0.630584C24.8121 0.583904 24.8398 0.541607 24.8755 0.506538C24.9111 0.47147 24.9539 0.444444 25.0008 0.42728C25.0478 0.410115 25.0979 0.40321 25.1478 0.407028H29.3329C29.3823 0.404123 29.4317 0.411707 29.4779 0.42928C29.5241 0.446854 29.5661 0.474018 29.6011 0.508986C29.636 0.543953 29.6632 0.585929 29.6808 0.632153C29.6983 0.678376 29.7059 0.727797 29.703 0.777162V25.2214C29.7059 25.2707 29.6983 25.3202 29.6808 25.3664C29.6632 25.4126 29.636 25.4546 29.6011 25.4896C29.5661 25.5245 29.5241 25.5517 29.4779 25.5693C29.4317 25.5868 29.3823 25.5944 29.3329 25.5915H24.9251C24.7951 25.5998 24.6657 25.569 24.5534 25.503C24.4412 25.4371 24.3513 25.339 24.2954 25.2214L15.3692 9.40697H15.1833V25.226C15.1862 25.2753 15.1786 25.3248 15.1611 25.371C15.1435 25.4172 15.1163 25.4592 15.0814 25.4942C15.0464 25.5291 15.0044 25.5563 14.9582 25.5739C14.912 25.5914 14.8626 25.599 14.8132 25.5961H10.6281C10.5787 25.599 10.5293 25.5914 10.4831 25.5739C10.4368 25.5563 10.3949 25.5291 10.3599 25.4942C10.3249 25.4592 10.2978 25.4172 10.2802 25.371C10.2626 25.3248 10.255 25.2753 10.2579 25.226V0.777162Z" fill="#070303"/>
<path d="M33.8494 12.9991C33.668 10.7038 33.9064 8.39459 34.5528 6.18469C35.1147 4.28446 36.3107 2.63415 37.9417 1.50875C39.5726 0.383347 41.54 -0.149175 43.5159 -8.20056e-05C45.3818 -0.113289 47.2357 0.366662 48.8123 1.37108C50.3888 2.3755 51.6073 3.85291 52.2932 5.59186C52.3208 5.63131 52.338 5.67709 52.3432 5.72497C52.3483 5.77284 52.3413 5.82124 52.3228 5.86568C52.3042 5.91012 52.2748 5.94915 52.2371 5.97914C52.1994 6.00914 52.1548 6.02913 52.1073 6.03725L48.0712 7.8526C48.0261 7.88034 47.9754 7.89759 47.9227 7.90308C47.8701 7.90857 47.8168 7.90216 47.767 7.88432C47.7172 7.86648 47.672 7.83766 47.6348 7.80001C47.5976 7.76235 47.5693 7.71681 47.5521 7.66676C47.2766 6.82832 46.7408 6.09963 46.0226 5.5867C45.3045 5.07376 44.4414 4.80332 43.5589 4.81473C42.705 4.7694 41.8618 5.0215 41.1729 5.52809C40.484 6.03468 39.992 6.76443 39.7808 7.59304C39.3617 9.36299 39.2244 11.1879 39.3738 13.0007C39.2244 14.8134 39.3617 16.6384 39.7808 18.4083C39.992 19.2369 40.484 19.9667 41.1729 20.4733C41.8618 20.9799 42.705 21.232 43.5589 21.1866C44.4414 21.198 45.3045 20.9276 46.0226 20.4147C46.7408 19.9017 47.2766 19.173 47.5521 18.3346C47.5693 18.2846 47.5976 18.239 47.6348 18.2014C47.672 18.1637 47.7172 18.1349 47.767 18.1171C47.8168 18.0992 47.8701 18.0928 47.9227 18.0983C47.9754 18.1038 48.0261 18.121 48.0712 18.1488L52.1073 19.9657C52.1548 19.9738 52.1994 19.9938 52.2371 20.0238C52.2748 20.0538 52.3042 20.0928 52.3228 20.1372C52.3413 20.1817 52.3483 20.2301 52.3432 20.2779C52.338 20.3258 52.3208 20.3716 52.2932 20.411C51.6073 22.15 50.3888 23.6274 48.8123 24.6318C47.2357 25.6362 45.3818 26.1162 43.5159 26.003C41.5392 26.1517 39.5712 25.6183 37.9402 24.4917C36.3091 23.3651 35.1135 21.7134 34.5528 19.8121C33.9067 17.6026 33.6683 15.294 33.8494 12.9991Z" fill="#070303"/>
<path d="M69.7355 25.5913C69.6135 25.6089 69.4894 25.5808 69.3868 25.5125C69.2842 25.4442 69.2104 25.3405 69.1795 25.2212L64.847 16.0062H61.4758C61.4456 16.0019 61.4147 16.0046 61.3857 16.0143C61.3567 16.0239 61.3303 16.0402 61.3087 16.0618C61.2871 16.0834 61.2708 16.1098 61.2612 16.1388C61.2515 16.1678 61.2488 16.1987 61.2531 16.2289V25.2289C61.256 25.2782 61.2485 25.3277 61.2309 25.3739C61.2133 25.4201 61.1862 25.4621 61.1512 25.4971C61.1162 25.532 61.0742 25.5592 61.028 25.5768C60.9818 25.5943 60.9324 25.6019 60.883 25.599H56.1803C56.131 25.6019 56.0815 25.5943 56.0353 25.5768C55.9891 25.5592 55.9471 25.532 55.9121 25.4971C55.8772 25.4621 55.85 25.4201 55.8324 25.3739C55.8149 25.3277 55.8073 25.2782 55.8102 25.2289V0.776989C55.8073 0.727623 55.8149 0.678202 55.8324 0.631979C55.85 0.585756 55.8772 0.543779 55.9121 0.508812C55.9471 0.473845 55.9891 0.44668 56.0353 0.429107C56.0815 0.411534 56.131 0.40395 56.1803 0.406855H66.2169C71.365 0.406855 74.7715 3.63209 74.7715 8.22114C74.8166 9.70419 74.4131 11.1663 73.6138 12.4164C72.8145 13.6664 71.6566 14.6462 70.2915 15.2276L75.2537 25.1536C75.2843 25.1981 75.3015 25.2503 75.3035 25.3042C75.3054 25.358 75.292 25.4114 75.2648 25.4579C75.2376 25.5044 75.1977 25.5423 75.1498 25.567C75.1018 25.5917 75.0479 25.6023 74.9942 25.5975L69.7355 25.5913ZM69.3285 8.22114C69.3386 7.78399 69.2549 7.34975 69.083 6.94767C68.9112 6.54559 68.6552 6.185 68.3323 5.89017C68.0094 5.59533 67.627 5.37311 67.211 5.23846C66.795 5.10381 66.3549 5.05985 65.9205 5.10955H61.4758C61.4456 5.10518 61.4147 5.10792 61.3857 5.11757C61.3567 5.12721 61.3303 5.14349 61.3087 5.16511C61.2871 5.18673 61.2708 5.21309 61.2612 5.24211C61.2515 5.27112 61.2488 5.30199 61.2531 5.33225V11.1469C61.2488 11.1771 61.2515 11.208 61.2612 11.237C61.2708 11.266 61.2871 11.2924 61.3087 11.314C61.3303 11.3356 61.3567 11.3519 61.3857 11.3616C61.4147 11.3712 61.4456 11.374 61.4758 11.3696H65.9205C66.3578 11.418 66.8003 11.3719 67.2182 11.2344C67.6361 11.0969 68.0196 10.8713 68.3427 10.5728C68.6659 10.2742 68.9211 9.90979 69.0912 9.50408C69.2612 9.09836 69.3422 8.66085 69.3285 8.22114Z" fill="#070303"/>
<path d="M78.8094 16.3318V0.776989C78.8065 0.72776 78.814 0.678476 78.8315 0.632366C78.849 0.586255 78.876 0.544357 78.9108 0.509415C78.9456 0.474472 78.9874 0.447274 79.0334 0.4296C79.0795 0.411926 79.1287 0.404175 79.178 0.406855H83.8776C83.9269 0.40395 83.9764 0.411534 84.0226 0.429107C84.0688 0.44668 84.1108 0.473845 84.1458 0.508812C84.1807 0.543779 84.2079 0.585756 84.2255 0.631979C84.243 0.678202 84.2506 0.727623 84.2477 0.776989V16.4808C84.2477 19.4803 85.9141 21.185 88.4697 21.185C90.9885 21.185 92.6548 19.4803 92.6548 16.4808V0.776989C92.6519 0.727623 92.6595 0.678202 92.6771 0.631979C92.6947 0.585756 92.7218 0.543779 92.7568 0.508812C92.7918 0.473845 92.8337 0.44668 92.88 0.429107C92.9262 0.411534 92.9756 0.40395 93.025 0.406855H97.7292C97.7786 0.40395 97.828 0.411534 97.8742 0.429107C97.9204 0.44668 97.9624 0.473845 97.9974 0.508812C98.0323 0.543779 98.0595 0.585756 98.0771 0.631979C98.0947 0.678202 98.1022 0.727623 98.0993 0.776989V16.3318C98.0993 22.5919 94.1062 25.9983 88.4697 25.9983C82.8025 25.9983 78.8032 22.5919 78.8032 16.3318" fill="#070303"/>
<path d="M107.482 0.406982H103.573C103.149 0.406982 102.805 0.750789 102.805 1.1749V24.8235C102.805 25.2477 103.149 25.5915 103.573 25.5915H107.482C107.906 25.5915 108.25 25.2477 108.25 24.8235V1.1749C108.25 0.750789 107.906 0.406982 107.482 0.406982Z" fill="#070303"/>
<path d="M118.618 25.5913C118.569 25.5942 118.519 25.5867 118.473 25.5691C118.427 25.5515 118.385 25.5243 118.35 25.4894C118.315 25.4544 118.288 25.4124 118.27 25.3662C118.252 25.32 118.245 25.2706 118.248 25.2212V5.48122C118.252 5.45096 118.249 5.4201 118.24 5.39108C118.23 5.36207 118.214 5.3357 118.192 5.31408C118.171 5.29246 118.144 5.27619 118.115 5.26654C118.086 5.2569 118.055 5.25415 118.025 5.25853H111.654C111.605 5.26143 111.556 5.25385 111.509 5.23628C111.463 5.2187 111.421 5.19154 111.386 5.15657C111.351 5.1216 111.324 5.07963 111.307 5.03341C111.289 4.98718 111.281 4.93776 111.284 4.8884V0.776989C111.281 0.727623 111.289 0.678202 111.307 0.631979C111.324 0.585756 111.351 0.543779 111.386 0.508812C111.421 0.473845 111.463 0.44668 111.509 0.429107C111.556 0.411534 111.605 0.40395 111.654 0.406855H130.284C130.333 0.40395 130.383 0.411534 130.429 0.429107C130.475 0.44668 130.517 0.473845 130.552 0.508812C130.587 0.543779 130.614 0.585756 130.632 0.631979C130.649 0.678202 130.657 0.727623 130.654 0.776989V4.8884C130.657 4.93776 130.649 4.98718 130.632 5.03341C130.614 5.07963 130.587 5.1216 130.552 5.15657C130.517 5.19154 130.475 5.2187 130.429 5.23628C130.383 5.25385 130.333 5.26143 130.284 5.25853H123.913C123.883 5.25442 123.853 5.25736 123.824 5.26712C123.795 5.27688 123.769 5.2932 123.747 5.31479C123.726 5.33637 123.71 5.36264 123.7 5.39152C123.691 5.4204 123.688 5.45111 123.692 5.48122V25.2212C123.695 25.2706 123.688 25.32 123.67 25.3662C123.652 25.4124 123.625 25.4544 123.59 25.4894C123.555 25.5243 123.513 25.5515 123.467 25.5691C123.421 25.5867 123.371 25.5942 123.322 25.5913H118.618Z" fill="#070303"/>
<path d="M159.766 25.5915C159.656 25.5947 159.547 25.5596 159.46 25.4922C159.372 25.4247 159.31 25.329 159.285 25.2213L154.914 9.5559H154.841L150.433 25.2213C150.408 25.329 150.346 25.4247 150.259 25.4922C150.171 25.5596 150.063 25.5947 149.952 25.5915H146.249C146.144 25.5881 146.044 25.5499 145.963 25.4828C145.882 25.4158 145.826 25.3238 145.804 25.2213L139.284 0.777121C139.247 0.554426 139.321 0.406986 139.581 0.406986H144.359C144.466 0.398802 144.573 0.432884 144.656 0.501995C144.739 0.571106 144.791 0.669801 144.802 0.777121L148.435 16.5931H148.508L152.809 0.774049C152.834 0.666361 152.895 0.570675 152.983 0.503214C153.071 0.435753 153.179 0.40067 153.289 0.403915H156.515C156.619 0.407354 156.72 0.445637 156.8 0.512691C156.881 0.579744 156.936 0.671728 156.959 0.774049L161.403 16.5931H161.477L164.959 0.774049C164.961 0.719662 164.975 0.666351 164.999 0.617543C165.023 0.568735 165.057 0.52551 165.099 0.490648C165.14 0.455787 165.189 0.43006 165.241 0.415122C165.294 0.400185 165.349 0.396367 165.403 0.403915H170.144C170.403 0.403915 170.477 0.557497 170.44 0.774049L163.947 25.2213C163.925 25.3308 163.864 25.4286 163.776 25.4967C163.687 25.5648 163.577 25.5984 163.466 25.5915H159.766Z" fill="#070303"/>
<path d="M172.95 19.8888C172.323 17.6493 172.085 15.319 172.245 12.9991C172.085 10.6791 172.323 8.34884 172.95 6.10934C174.246 2.03633 177.726 -0.00170898 182.134 -0.00170898C186.542 -0.00170898 190.023 2.0348 191.32 6.10934C191.945 8.34895 192.183 10.6792 192.023 12.9991C192.183 15.3189 191.945 17.6492 191.32 19.8888C190.023 23.9618 186.542 25.9998 182.134 25.9998C177.726 25.9998 174.246 23.9633 172.95 19.8888ZM186.096 18.4067C186.498 16.6341 186.636 14.8119 186.505 12.9991C186.635 11.1862 186.498 9.36402 186.096 7.59141C185.801 6.77785 185.262 6.07499 184.553 5.57831C183.844 5.08162 182.999 4.81518 182.134 4.81518C181.268 4.81518 180.424 5.08162 179.715 5.57831C179.006 6.07499 178.467 6.77785 178.171 7.59141C177.77 9.36406 177.633 11.1863 177.764 12.9991C177.633 14.8118 177.77 16.6341 178.171 18.4067C178.467 19.2203 179.006 19.9231 179.715 20.4198C180.424 20.9165 181.268 21.1829 182.134 21.1829C182.999 21.1829 183.844 20.9165 184.553 20.4198C185.262 19.9231 185.801 19.2203 186.096 18.4067Z" fill="#070303"/>
<path d="M210.095 25.5913C209.973 25.6089 209.849 25.5808 209.746 25.5125C209.644 25.4442 209.57 25.3405 209.539 25.2212L205.205 16.0062H201.834C201.804 16.0021 201.773 16.0051 201.744 16.0148C201.715 16.0246 201.689 16.0409 201.668 16.0625C201.646 16.0841 201.63 16.1104 201.621 16.1392C201.611 16.1681 201.608 16.1988 201.613 16.2289V25.2289C201.616 25.2782 201.608 25.3277 201.59 25.3739C201.573 25.4201 201.546 25.4621 201.511 25.4971C201.476 25.532 201.434 25.5592 201.387 25.5768C201.341 25.5943 201.292 25.6019 201.242 25.599H196.538C196.489 25.6019 196.439 25.5943 196.393 25.5768C196.347 25.5592 196.305 25.532 196.27 25.4971C196.235 25.4621 196.208 25.4201 196.19 25.3739C196.173 25.3277 196.165 25.2782 196.168 25.2289V0.776989C196.165 0.727623 196.173 0.678202 196.19 0.631979C196.208 0.585756 196.235 0.543779 196.27 0.508812C196.305 0.473845 196.347 0.44668 196.393 0.429107C196.439 0.411534 196.489 0.40395 196.538 0.406855H206.575C211.723 0.406855 215.131 3.63209 215.131 8.22114C215.174 9.70308 214.77 11.1637 213.97 12.4122C213.171 13.6608 212.014 14.6392 210.649 15.2199L215.612 25.1459C215.642 25.1905 215.658 25.2426 215.66 25.2962C215.662 25.3499 215.648 25.4029 215.621 25.4492C215.594 25.4955 215.554 25.5333 215.507 25.5581C215.459 25.583 215.406 25.594 215.352 25.5898L210.095 25.5913ZM209.686 8.22114C209.696 7.78413 209.613 7.35005 209.441 6.94808C209.269 6.54612 209.013 6.18561 208.691 5.8908C208.368 5.596 207.986 5.37374 207.57 5.23898C207.154 5.10422 206.714 5.06009 206.28 5.10955H201.835C201.805 5.10511 201.774 5.10782 201.745 5.11746C201.716 5.12711 201.69 5.14342 201.669 5.16508C201.647 5.18675 201.631 5.21316 201.621 5.24219C201.612 5.27123 201.61 5.30207 201.614 5.33225V11.1469C201.61 11.177 201.613 11.2077 201.622 11.2366C201.632 11.2655 201.648 11.2917 201.669 11.3133C201.691 11.3349 201.717 11.3512 201.746 11.361C201.774 11.3708 201.805 11.3737 201.835 11.3696H206.28C206.717 11.4177 207.159 11.3714 207.577 11.2339C207.995 11.0963 208.378 10.8706 208.701 10.5721C209.024 10.2736 209.279 9.90926 209.449 9.50367C209.619 9.09807 209.7 8.6607 209.686 8.22114Z" fill="#070303"/>
<path d="M219.277 0.777019C219.275 0.727653 219.282 0.678232 219.3 0.632009C219.317 0.585786 219.344 0.543809 219.379 0.508842C219.414 0.473875 219.456 0.44671 219.503 0.429137C219.549 0.411564 219.598 0.40398 219.648 0.406885H224.352C224.401 0.40398 224.451 0.411564 224.497 0.429137C224.543 0.44671 224.585 0.473875 224.62 0.508842C224.655 0.543809 224.682 0.585786 224.7 0.632009C224.717 0.678232 224.725 0.727653 224.722 0.777019V11.666L233.092 0.740159C233.154 0.629703 233.246 0.539443 233.358 0.480296C233.469 0.42115 233.596 0.395651 233.722 0.406885H239.097C239.32 0.406885 239.431 0.666439 239.251 0.887598L231.621 10.4435L239.954 25.1475C240.108 25.4071 239.991 25.5914 239.732 25.5914H234.287C234.171 25.606 234.052 25.5811 233.952 25.5207C233.851 25.4603 233.773 25.3678 233.731 25.2581L228.027 14.6609L224.731 18.8076V25.2151C224.734 25.2644 224.726 25.3139 224.709 25.3601C224.691 25.4063 224.664 25.4483 224.629 25.4833C224.594 25.5182 224.552 25.5454 224.506 25.563C224.46 25.5805 224.41 25.5881 224.361 25.5852H219.657C219.607 25.5881 219.558 25.5805 219.512 25.563C219.466 25.5454 219.424 25.5182 219.389 25.4833C219.354 25.4483 219.326 25.4063 219.309 25.3601C219.291 25.3139 219.284 25.2644 219.287 25.2151L219.277 0.777019Z" fill="#070303"/>
<path d="M241.498 22.555C241.412 22.4746 241.361 22.3647 241.354 22.2478C241.347 22.1308 241.384 22.0155 241.459 21.9253L244.275 18.7001C244.307 18.6584 244.347 18.624 244.394 18.5992C244.44 18.5744 244.492 18.5598 244.544 18.5563C244.597 18.5528 244.65 18.5605 244.699 18.579C244.748 18.5974 244.793 18.6261 244.83 18.6632C246.669 20.2514 248.994 21.1658 251.422 21.2557C254.052 21.2557 255.534 20.027 255.534 18.2562C255.534 16.7742 254.646 15.8496 251.645 15.4411L250.312 15.2552C245.201 14.5518 242.349 12.1436 242.349 7.70049C242.35 3.07151 245.83 -0.000138832 251.275 -0.000138832C254.335 -0.065801 257.335 0.856178 259.831 2.6292C260.054 2.78278 260.09 2.92561 259.905 3.18516L257.645 6.55477C257.619 6.59665 257.585 6.63283 257.544 6.66116C257.503 6.68949 257.458 6.7094 257.409 6.71971C257.361 6.73002 257.311 6.73052 257.262 6.72118C257.214 6.71185 257.167 6.69286 257.126 6.66535C255.415 5.44755 253.375 4.77615 251.275 4.73942C249.052 4.73942 247.905 5.88822 247.905 7.47933C247.905 8.92455 248.942 9.85065 251.831 10.2576L253.164 10.4435C258.349 11.1484 261.09 13.5151 261.09 18.0735C261.09 22.6318 257.719 25.9983 251.203 25.9983C247.661 26.0442 244.219 24.8224 241.499 22.5535" fill="#070303"/>
</g>
</g>
<defs>
<clipPath id="clip0_222_59">
<rect width="261.09" height="26" fill="white"/>
</clipPath>
</defs>
</svg>
