<svg width="264" height="60" viewBox="0 0 264 60" fill="none" xmlns="http://www.w3.org/2000/svg">
<g clip-path="url(#clip0_212_43)">
<mask id="mask0_212_43" style="mask-type:luminance" maskUnits="userSpaceOnUse" x="0" y="0" width="264" height="60">
<path d="M263.684 0H0V60H263.684V0Z" fill="white"/>
</mask>
<g mask="url(#mask0_212_43)">
<path fill-rule="evenodd" clip-rule="evenodd" d="M66.0948 33.1943C65.0967 23.5308 54.0945 15.5913 41.5043 15.5005C28.9141 15.4098 19.4997 23.1678 20.4752 32.8313C21.4734 42.4949 32.4757 50.4343 45.0885 50.5251C57.6787 50.6385 67.093 42.8805 66.0948 33.1943ZM24.4224 30.7671C23.5605 22.9636 31.7497 16.7028 42.6839 16.7936C53.6181 16.8842 63.1911 23.2586 64.0532 31.0619C64.9152 38.8654 56.7487 45.1262 45.7917 45.0354C34.8575 44.9448 25.2845 38.5704 24.4224 30.7671Z" fill="#FBB584"/>
<path fill-rule="evenodd" clip-rule="evenodd" d="M24.086 29.4227C16.8723 36.9539 16.7588 48.5456 23.8138 55.3055C30.8689 62.0655 42.461 61.453 49.6748 53.9218C56.8887 46.3907 57.002 34.799 49.947 28.0163C42.8919 21.2563 31.2999 21.8916 24.086 29.4227ZM47.066 50.7005C40.8731 57.1883 30.9143 57.71 24.8346 51.9029C18.755 46.0957 18.8458 36.1145 25.0615 29.6268C31.2546 23.1392 41.2359 22.6174 47.2929 28.4246C53.3725 34.2318 53.259 44.2128 47.066 50.7005Z" fill="#F89B6C"/>
<path fill-rule="evenodd" clip-rule="evenodd" d="M12.7662 9.32591C-0.617972 19.9194 -4.02073 35.2767 5.14403 43.6246C14.3315 51.9724 32.6157 50.1349 46.0225 39.5415C59.4066 28.9478 62.8094 13.5906 53.6446 5.24274C44.4572 -3.10509 26.1504 -1.29034 12.7662 9.32591ZM24.7438 5.17469C37.6517 0.342929 50.4006 5.24274 53.259 16.1085C56.0946 26.9743 47.928 39.7229 35.0203 44.5546C22.1124 49.3864 9.36345 44.4866 6.52782 33.6207C3.69219 22.7323 11.8588 10.0064 24.7438 5.17469Z" fill="#F37321"/>
<path d="M204.889 37.7274C202.778 37.9996 200.554 38.1357 198.219 38.1357H194.679V26.0904H203.39V27.9278H196.789V36.3211H198.399C200.51 36.3211 202.688 36.2077 204.889 35.9127V37.7274ZM208.064 24.5933V30.6046H210.832V32.5554H208.064V41.8561H205.954V24.5933H208.064Z" fill="black"/>
<path d="M212.394 32.3287C212.394 30.5819 212.825 29.0394 213.709 27.7464C214.617 26.4307 215.774 25.7729 217.111 25.7729C218.45 25.7729 219.584 26.4307 220.538 27.7464C221.446 29.0167 221.899 30.5366 221.899 32.3287C221.899 34.1206 221.446 35.6178 220.538 36.8882C219.63 38.2038 218.472 38.839 217.111 38.839C215.75 38.839 214.617 38.2038 213.709 36.8882C212.825 35.6405 212.394 34.1206 212.394 32.3287ZM214.481 32.3287C214.481 33.5536 214.73 34.6425 215.207 35.5952C215.75 36.5479 216.387 37.0243 217.111 37.0243C217.838 37.0243 218.472 36.5479 219.017 35.5952C219.54 34.6197 219.789 33.5309 219.789 32.3287C219.789 31.0583 219.54 29.9694 219.041 29.0622C218.472 28.0867 217.816 27.5876 217.111 27.5876C216.363 27.5876 215.706 28.0867 215.207 29.0622C214.73 30.0149 214.481 31.1263 214.481 32.3287ZM226.752 24.5933V41.8561H224.667V24.5933H226.752Z" fill="black"/>
<path d="M237.308 34.5253C235.879 34.7067 234.268 34.7748 232.544 34.7748H229.504V29.1945H233.905V27.3343H229.504V25.6103H236.016V30.9184H231.592V33.0507H232.749C234.314 33.0507 235.834 32.9601 237.331 32.8013V34.5253H237.308ZM231.478 36.0905H244.25V42.1925H242.185V37.8825H231.478V36.0905ZM240.802 35.4326H238.738V30.9184H236.854V29.1037H238.738V24.8164H240.802V35.4326ZM242.163 24.5669H244.25V35.4326H242.163V24.5669Z" fill="black"/>
<path d="M263.303 38.4766V40.2912H246.2V38.4766H263.303ZM248.31 35.8451V26.0908H261.194V27.8829H250.419V30.0379H261.058V31.83H250.419V34.0304H261.375V35.8451H248.286H248.31Z" fill="black"/>
<path fill-rule="evenodd" clip-rule="evenodd" d="M146.544 31.2622C148.858 31.2622 150.74 31.852 152.215 33.0316C153.69 34.2112 154.438 35.6176 154.438 37.2736C154.438 38.9296 153.69 40.3587 152.215 41.5609C150.74 42.7631 148.835 43.3756 146.544 43.3756C144.253 43.3756 142.37 42.7631 140.895 41.5609C139.398 40.3587 138.672 38.9296 138.672 37.2736C138.672 35.6176 139.421 34.2112 140.895 33.0316C142.37 31.852 144.275 31.2622 146.544 31.2622ZM174.582 31.2622C176.897 31.2622 178.757 31.852 180.208 33.0543C181.661 34.2565 182.386 35.6631 182.386 37.2963C182.386 38.9296 181.661 40.3587 180.208 41.5609C178.757 42.7859 176.873 43.3983 174.582 43.3983C172.291 43.3983 170.431 42.7859 168.979 41.5609C167.528 40.336 166.801 38.9069 166.801 37.2963C166.801 35.6856 167.528 34.2565 168.979 33.0543C170.431 31.8747 172.313 31.2622 174.582 31.2622ZM125.764 17.8559V26.1583H129.326V28.9031H125.764V42.6044H122.339V37.9769C121.295 38.9069 119.775 39.3605 117.734 39.3605H103.215V36.6839H109.862V34.0524C108.637 33.8482 107.594 33.3719 106.732 32.6686C105.552 31.6933 104.94 30.5136 104.94 29.1526C104.94 27.7915 105.552 26.6119 106.777 25.6366C108.002 24.6384 109.59 24.162 111.563 24.162C113.537 24.162 115.125 24.6611 116.35 25.6366C117.575 26.6346 118.188 27.7915 118.188 29.1526C118.188 30.5136 117.598 31.6933 116.395 32.6686C115.556 33.3491 114.512 33.8256 113.31 34.0524V36.6839H117.144C120.592 36.6839 122.316 35.3454 122.316 32.6913V17.8559H125.742H125.764ZM82.073 35.4815V37.8408C82.073 39.2018 82.7308 39.8823 84.0693 39.8823H97.4534V42.5364H83.2299C80.1674 42.5364 78.6248 41.1073 78.6248 38.2491V35.4815H82.073ZM174.605 33.871C173.289 33.871 172.223 34.2112 171.429 34.869C170.635 35.5495 170.228 36.3436 170.228 37.2963C170.228 38.2491 170.613 39.043 171.407 39.7462C172.201 40.4268 173.267 40.7896 174.605 40.7896C175.943 40.7896 176.987 40.4493 177.781 39.7688C178.576 39.0883 178.983 38.2716 178.983 37.2963C178.983 36.3209 178.576 35.5495 177.781 34.869C176.965 34.2112 175.921 33.871 174.605 33.871ZM146.567 33.871C145.251 33.871 144.162 34.2112 143.345 34.869C142.529 35.5495 142.12 36.3436 142.12 37.2963C142.12 38.2491 142.529 39.0657 143.345 39.7462C144.162 40.4268 145.251 40.7896 146.589 40.7896C147.928 40.7896 148.994 40.4493 149.81 39.7688C150.627 39.0883 151.058 38.2716 151.058 37.2963C151.058 36.3209 150.65 35.5495 149.81 34.869C148.971 34.2112 147.905 33.871 146.589 33.871H146.567ZM97.34 17.8559V24.1848H100.902V26.8841H97.34V35.6176H93.9145V17.8559H97.34ZM82.8897 24.1394C84.8406 24.1394 86.4286 24.6384 87.6762 25.6139C88.9012 26.6119 89.5137 27.7688 89.5137 29.1299C89.5137 30.4909 88.9012 31.6933 87.6762 32.6913C86.4511 33.6895 84.8632 34.1659 82.8897 34.1659C80.916 34.1659 79.328 33.6668 78.1031 32.6913C76.8781 31.6933 76.2657 30.5136 76.2657 29.1299C76.2657 27.7462 76.8781 26.5893 78.1031 25.6139C79.328 24.6158 80.916 24.1394 82.8897 24.1394ZM111.586 26.5666C110.679 26.5666 109.908 26.8161 109.272 27.3152C108.637 27.8143 108.297 28.4268 108.297 29.1526C108.297 29.8784 108.615 30.5136 109.272 31.0128C109.908 31.5117 110.679 31.7613 111.586 31.7613C112.494 31.7613 113.265 31.5117 113.9 31.0128C114.535 30.5136 114.876 29.8784 114.876 29.1526C114.876 28.4268 114.558 27.8143 113.9 27.3152C113.242 26.8161 112.494 26.5666 111.586 26.5666ZM82.8897 26.5666C81.9822 26.5666 81.2109 26.8161 80.5757 27.3152C79.9405 27.8143 79.623 28.4268 79.623 29.1526C79.623 29.8784 79.9405 30.5136 80.5757 31.0128C81.2109 31.5117 81.9822 31.7613 82.8897 31.7613C83.7971 31.7613 84.5684 31.5117 85.2034 31.0128C85.8387 30.5136 86.1563 29.9012 86.1563 29.1526C86.1563 28.404 85.8387 27.8143 85.2034 27.3152C84.5684 26.8161 83.7971 26.5666 82.8897 26.5666ZM182.613 17.8784V31.2169H179.188V28.1091H174.129V30.1506H164.351C161.675 30.1506 160.313 28.7443 160.313 25.9541V18.2868H172.269C173.517 18.2868 174.151 18.922 174.151 20.1922V20.646H179.21V17.8784H182.635H182.613ZM149.742 17.8784V22.6195H152.011V17.8784H155.391V30.9673H152.011V25.3189H149.742V30.3548H146.43V17.8559H149.742V17.8784ZM139.806 18.2187V19.2169C139.806 22.2793 140.396 24.5023 141.599 25.8408C142.597 26.9522 143.731 27.6327 145.001 27.8596V30.559C142.823 30.2642 140.941 29.3795 139.33 27.9049C138.876 27.4966 138.491 27.043 138.15 26.4985C137.81 27.043 137.402 27.4966 136.971 27.9049C135.36 29.3795 133.477 30.2642 131.3 30.559V27.8596C132.57 27.6327 133.704 26.9522 134.702 25.8408C135.882 24.5023 136.494 22.2793 136.494 19.2169V18.2187H139.829H139.806ZM170.749 20.8955H163.694V25.9088C163.694 26.9749 164.193 27.5193 165.169 27.5193H170.749V20.8955ZM179.188 23.2773H174.129V25.4324H179.188V23.2773ZM90.6252 20.8274V23.3001H75.1313V20.8274H90.6252ZM119.277 20.8274V23.3001H103.783V20.8274H119.277ZM115.556 17.4248V19.92H107.616V17.4248H115.556ZM86.8595 17.4248V19.92H78.9197V17.4248H86.8595Z" fill="black"/>
</g>
</g>
<defs>
<clipPath id="clip0_212_43">
<rect width="263.684" height="60" fill="white"/>
</clipPath>
</defs>
</svg>
