<svg width="18" height="30" viewBox="0 0 18 30" fill="none" xmlns="http://www.w3.org/2000/svg">
<path d="M0.0043335 15.1146C0.0355282 15.4863 0.212006 15.8384 0.505577 16.1146L14.5887 29.4475C14.7605 29.6103 14.9682 29.7427 15.2 29.8371C15.4318 29.9315 15.6832 29.986 15.9398 29.9977C16.1964 30.0093 16.4531 29.9777 16.6954 29.9048C16.9376 29.8318 17.1606 29.719 17.3517 29.5726C17.5428 29.4262 17.6981 29.2492 17.8089 29.0517C17.9196 28.8542 17.9836 28.64 17.9973 28.4213C18.0109 28.2027 17.9738 27.984 17.8882 27.7776C17.8026 27.5712 17.6701 27.3812 17.4982 27.2184L4.58871 15L17.4982 2.78164C17.6701 2.61887 17.8026 2.42886 17.8882 2.22245C17.9738 2.01604 18.0109 1.79729 17.9973 1.57868C17.9836 1.36006 17.9196 1.14586 17.8089 0.948324C17.6981 0.75079 17.5428 0.573761 17.3517 0.427385C17.1606 0.28101 16.9376 0.168131 16.6954 0.0952015C16.4531 0.0222721 16.1964 -0.00927162 15.9398 0.00234985C15.6832 0.0139694 15.4318 0.0685463 15.2 0.162949C14.9682 0.257349 14.7605 0.389736 14.5887 0.552544L0.505577 13.8855C0.329565 14.0512 0.194483 14.2455 0.108372 14.4566C0.0222607 14.6678 -0.0131207 14.8915 0.0043335 15.1146Z" fill="white"/>
</svg>
